ffmpeg started on 2025-06-16 at 17:02:44
Report written to "D:\Convert\FFMetrics\reports\psnr_report-6.txt"
Log level: 32
Command line:
ffmpeg -hide_banner -nostdin -i "G:\\\xc0\xed\xe8\xec\xe5\\[\xd2\xee\xef]\\\xd0\xfb\xf6\xe0\xf0\xfc-\xe2\xe0\xec\xef\xe8\xf0\\\xd2\xc2-2\\[JamClub] Vampire Knight Guilty - 08_HEVC.mkv" -i "G:\\\xc0\xed\xe8\xec\xe5\\[\xd2\xee\xef]\\\xd0\xfb\xf6\xe0\xf0\xfc-\xe2\xe0\xec\xef\xe8\xf0\\\xd2\xc2-2\\[JamClub] Vampire Knight Guilty - 08.mp4" -lavfi "[0:v]settb=AVTB,setpts=PTS-STARTPTS,format=pix_fmts=yuv420p10,fps=24000/1001,scale=1920:1080:flags=bicubic[main];[1:v]settb=AVTB,setpts=PTS-STARTPTS,format=pix_fmts=yuv420p,fps=24000/1001,scale=1920:1080:flags=bicubic[ref];[main][ref]psnr=eof_action=endall:stats_file='D\\:/Convert/FFMetrics/logs/psnr_logfile-6.txt'" -f null -
Input #0, matroska,webm, from 'G:\Аниме\[Топ]\Рыцарь-вампир\ТВ-2\[JamClub] Vampire Knight Guilty - 08_HEVC.mkv':
  Metadata:
    COMPATIBLE_BRANDS: isomiso2avc1mp41
    MAJOR_BRAND     : isom
    MINOR_VERSION   : 512
    ENCODER         : Lavf61.7.100
  Duration: 00:24:22.09, start: -0.001000, bitrate: 1308 kb/s
  Stream #0:0: Video: hevc (Main 10), yuv420p10le(tv, bt709, progressive), 1920x1080 [SAR 1:1 DAR 16:9], 23.98 fps, 23.98 tbr, 1k tbn (default)
      Metadata:
        HANDLER_NAME    : VideoHandler
        VENDOR_ID       : [0][0][0][0]
        ENCODER         : Lavc61.19.100 libx265
        BPS             : 1110074
        DURATION        : 00:24:22.043708333
        NUMBER_OF_FRAMES: 43684
        NUMBER_OF_BYTES : 202872048
        _STATISTICS_WRITING_APP: mkvpropedit v66.0.0 ('Josie') 64-bit
        _STATISTICS_WRITING_DATE_UTC: 2025-06-16 11:42:44
        _STATISTICS_TAGS: BPS DURATION NUMBER_OF_FRAMES NUMBER_OF_BYTES
  Stream #0:1(eng): Audio: aac (LC), 48000 Hz, stereo, fltp (default)
      Metadata:
        HANDLER_NAME    : SoundHandler
        VENDOR_ID       : [0][0][0][0]
        ENCODER         : Lavc61.19.100 aac
        BPS             : 194268
        DURATION        : 00:24:22.053000000
        NUMBER_OF_FRAMES: 68535
        NUMBER_OF_BYTES : 35503786
        _STATISTICS_WRITING_APP: mkvpropedit v66.0.0 ('Josie') 64-bit
        _STATISTICS_WRITING_DATE_UTC: 2025-06-16 11:42:44
        _STATISTICS_TAGS: BPS DURATION NUMBER_OF_FRAMES NUMBER_OF_BYTES
Input #1, mov,mp4,m4a,3gp,3g2,mj2, from 'G:\Аниме\[Топ]\Рыцарь-вампир\ТВ-2\[JamClub] Vampire Knight Guilty - 08.mp4':
  Metadata:
    major_brand     : isom
    minor_version   : 512
    compatible_brands: isomiso2avc1mp41
    encoder         : Lavf60.16.100
  Duration: 00:24:22.07, start: 0.000000, bitrate: 4036 kb/s
  Stream #1:0[0x1](und): Video: h264 (High) (avc1 / 0x31637661), yuv420p(progressive), 1920x1080 [SAR 1:1 DAR 16:9], 3836 kb/s, 29.88 fps, 23.98 tbr, 90k tbn (default)
      Metadata:
        handler_name    : VideoHandler
        vendor_id       : [0][0][0][0]
  Stream #1:1[0x2](eng): Audio: aac (LC) (mp4a / 0x6134706D), 48000 Hz, stereo, fltp, 191 kb/s (default)
      Metadata:
        handler_name    : SoundHandler
        vendor_id       : [0][0][0][0]
Stream mapping:
  Stream #0:0 (hevc) -> settb:default
  Stream #1:0 (h264) -> settb:default
  psnr:default -> Stream #0:0 (wrapped_avframe)
  Stream #0:1 -> #0:1 (aac (native) -> pcm_s16le (native))
Output #0, null, to 'pipe:':
  Metadata:
    COMPATIBLE_BRANDS: isomiso2avc1mp41
    MAJOR_BRAND     : isom
    MINOR_VERSION   : 512
    encoder         : Lavf61.7.100
  Stream #0:0: Video: wrapped_avframe, yuv420p10le(tv, bt709, progressive), 1920x1080 [SAR 1:1 DAR 16:9], q=2-31, 200 kb/s, 23.98 fps, 23.98 tbn
      Metadata:
        encoder         : Lavc61.19.100 wrapped_avframe
  Stream #0:1(eng): Audio: pcm_s16le, 48000 Hz, stereo, s16, 1536 kb/s (default)
      Metadata:
        HANDLER_NAME    : SoundHandler
        VENDOR_ID       : [0][0][0][0]
        _STATISTICS_TAGS: BPS DURATION NUMBER_OF_FRAMES NUMBER_OF_BYTES
        BPS             : 194268
        DURATION        : 00:24:22.053000000
        NUMBER_OF_FRAMES: 68535
        NUMBER_OF_BYTES : 35503786
        _STATISTICS_WRITING_APP: mkvpropedit v66.0.0 ('Josie') 64-bit
        _STATISTICS_WRITING_DATE_UTC: 2025-06-16 11:42:44
        encoder         : Lavc61.19.100 pcm_s16le
frame=  106 fps=0.0 q=-0.0 size=N/A time=00:00:04.42 bitrate=N/A speed= 8.7x    frame=  269 fps=261 q=-0.0 size=N/A time=00:00:11.21 bitrate=N/A speed=10.9x    frame=  464 fps=302 q=-0.0 size=N/A time=00:00:19.35 bitrate=N/A speed=12.6x    frame=  711 fps=344 q=-0.0 size=N/A time=00:00:29.65 bitrate=N/A speed=14.4x    frame=  935 fps=363 q=-0.0 size=N/A time=00:00:38.99 bitrate=N/A speed=15.1x    frame= 1152 fps=373 q=-0.0 size=N/A time=00:00:48.04 bitrate=N/A speed=15.6x    frame= 1365 fps=378 q=-0.0 size=N/A time=00:00:56.93 bitrate=N/A speed=15.8x    frame= 1575 fps=382 q=-0.0 size=N/A time=00:01:05.69 bitrate=N/A speed=15.9x    frame= 1789 fps=385 q=-0.0 size=N/A time=00:01:14.61 bitrate=N/A speed=16.1x    frame= 1980 fps=384 q=-0.0 size=N/A time=00:01:22.58 bitrate=N/A speed=  16x    frame= 2178 fps=385 q=-0.0 size=N/A time=00:01:30.84 bitrate=N/A speed=  16x    frame= 2404 fps=388 q=-0.0 size=N/A time=00:01:40.26 bitrate=N/A speed=16.2x    frame= 2609 fps=389 q=-0.0 size=N/A time=00:01:48.81 bitrate=N/A speed=16.2x    frame= 2809 fps=389 q=-0.0 size=N/A time=00:01:57.15 bitrate=N/A speed=16.2x    frame= 2969 fps=384 q=-0.0 size=N/A time=00:02:03.83 bitrate=N/A speed=  16x    frame= 3165 fps=384 q=-0.0 size=N/A time=00:02:12.00 bitrate=N/A speed=  16x    frame= 3387 fps=387 q=-0.0 size=N/A time=00:02:21.26 bitrate=N/A speed=16.1x    frame= 3596 fps=387 q=-0.0 size=N/A time=00:02:29.98 bitrate=N/A speed=16.2x    frame= 3816 fps=390 q=-0.0 size=N/A time=00:02:39.15 bitrate=N/A speed=16.2x    frame= 4053 fps=393 q=-0.0 size=N/A time=00:02:49.04 bitrate=N/A speed=16.4x    frame= 4280 fps=395 q=-0.0 size=N/A time=00:02:58.51 bitrate=N/A speed=16.5x    frame= 4506 fps=397 q=-0.0 size=N/A time=00:03:07.93 bitrate=N/A speed=16.6x    frame= 4736 fps=399 q=-0.0 size=N/A time=00:03:17.53 bitrate=N/A speed=16.7x    frame= 4988 fps=403 q=-0.0 size=N/A time=00:03:28.04 bitrate=N/A speed=16.8x    frame= 5244 fps=407 q=-0.0 size=N/A time=00:03:38.71 bitrate=N/A speed=  17x    frame= 5477 fps=409 q=-0.0 size=N/A time=00:03:48.43 bitrate=N/A speed=  17x    frame= 5691 fps=409 q=-0.0 size=N/A time=00:03:57.36 bitrate=N/A speed=  17x    frame= 5868 fps=406 q=-0.0 size=N/A time=00:04:04.74 bitrate=N/A speed=  17x    frame= 6047 fps=405 q=-0.0 size=N/A time=00:04:12.21 bitrate=N/A speed=16.9x    frame= 6230 fps=403 q=-0.0 size=N/A time=00:04:19.84 bitrate=N/A speed=16.8x    frame= 6466 fps=405 q=-0.0 size=N/A time=00:04:29.68 bitrate=N/A speed=16.9x    frame= 6712 fps=407 q=-0.0 size=N/A time=00:04:39.94 bitrate=N/A speed=  17x    frame= 6958 fps=409 q=-0.0 size=N/A time=00:04:50.20 bitrate=N/A speed=17.1x    frame= 7212 fps=411 q=-0.0 size=N/A time=00:05:00.80 bitrate=N/A speed=17.2x    frame= 7445 fps=413 q=-0.0 size=N/A time=00:05:10.51 bitrate=N/A speed=17.2x    frame= 7684 fps=414 q=-0.0 size=N/A time=00:05:20.52 bitrate=N/A speed=17.3x    frame= 7913 fps=415 q=-0.0 size=N/A time=00:05:30.03 bitrate=N/A speed=17.3x    frame= 8147 fps=416 q=-0.0 size=N/A time=00:05:39.79 bitrate=N/A speed=17.3x    frame= 8405 fps=418 q=-0.0 size=N/A time=00:05:50.55 bitrate=N/A speed=17.4x    frame= 8647 fps=419 q=-0.0 size=N/A time=00:06:00.65 bitrate=N/A speed=17.5x    frame= 8884 fps=420 q=-0.0 size=N/A time=00:06:10.53 bitrate=N/A speed=17.5x    frame= 9104 fps=420 q=-0.0 size=N/A time=00:06:19.71 bitrate=N/A speed=17.5x    frame= 9287 fps=419 q=-0.0 size=N/A time=00:06:27.34 bitrate=N/A speed=17.5x    frame= 9493 fps=419 q=-0.0 size=N/A time=00:06:35.93 bitrate=N/A speed=17.5x    frame= 9736 fps=419 q=-0.0 size=N/A time=00:06:46.07 bitrate=N/A speed=17.5x    frame= 9961 fps=420 q=-0.0 size=N/A time=00:06:55.45 bitrate=N/A speed=17.5x    frame=10197 fps=421 q=-0.0 size=N/A time=00:07:05.29 bitrate=N/A speed=17.5x    frame=10418 fps=421 q=-0.0 size=N/A time=00:07:14.51 bitrate=N/A speed=17.6x    frame=10628 fps=421 q=-0.0 size=N/A time=00:07:23.27 bitrate=N/A speed=17.5x    frame=10849 fps=421 q=-0.0 size=N/A time=00:07:32.49 bitrate=N/A speed=17.5x    frame=11065 fps=421 q=-0.0 size=N/A time=00:07:41.50 bitrate=N/A speed=17.5x    frame=11287 fps=421 q=-0.0 size=N/A time=00:07:50.76 bitrate=N/A speed=17.6x    frame=11510 fps=421 q=-0.0 size=N/A time=00:08:00.06 bitrate=N/A speed=17.6x    frame=11726 fps=421 q=-0.0 size=N/A time=00:08:09.07 bitrate=N/A speed=17.6x    frame=11947 fps=421 q=-0.0 size=N/A time=00:08:18.28 bitrate=N/A speed=17.6x    frame=12177 fps=422 q=-0.0 size=N/A time=00:08:27.88 bitrate=N/A speed=17.6x    frame=12403 fps=422 q=-0.0 size=N/A time=00:08:37.30 bitrate=N/A speed=17.6x    frame=12597 fps=421 q=-0.0 size=N/A time=00:08:45.39 bitrate=N/A speed=17.6x    frame=12798 fps=421 q=-0.0 size=N/A time=00:08:53.78 bitrate=N/A speed=17.5x    frame=13008 fps=420 q=-0.0 size=N/A time=00:09:02.54 bitrate=N/A speed=17.5x    frame=13205 fps=420 q=-0.0 size=N/A time=00:09:10.75 bitrate=N/A speed=17.5x    frame=13437 fps=420 q=-0.0 size=N/A time=00:09:20.43 bitrate=N/A speed=17.5x    frame=13660 fps=421 q=-0.0 size=N/A time=00:09:29.73 bitrate=N/A speed=17.5x    frame=13881 fps=421 q=-0.0 size=N/A time=00:09:38.95 bitrate=N/A speed=17.5x    frame=14088 fps=420 q=-0.0 size=N/A time=00:09:47.58 bitrate=N/A speed=17.5x    frame=14303 fps=420 q=-0.0 size=N/A time=00:09:56.55 bitrate=N/A speed=17.5x    frame=14509 fps=420 q=-0.0 size=N/A time=00:10:05.14 bitrate=N/A speed=17.5x    frame=14730 fps=420 q=-0.0 size=N/A time=00:10:14.36 bitrate=N/A speed=17.5x    frame=14947 fps=420 q=-0.0 size=N/A time=00:10:23.41 bitrate=N/A speed=17.5x    frame=15174 fps=421 q=-0.0 size=N/A time=00:10:32.88 bitrate=N/A speed=17.5x    frame=15413 fps=421 q=-0.0 size=N/A time=00:10:42.85 bitrate=N/A speed=17.6x    frame=15632 fps=421 q=-0.0 size=N/A time=00:10:51.98 bitrate=N/A speed=17.6x    frame=15859 fps=421 q=-0.0 size=N/A time=00:11:01.45 bitrate=N/A speed=17.6x    frame=16086 fps=422 q=-0.0 size=N/A time=00:11:10.92 bitrate=N/A speed=17.6x    frame=16308 fps=422 q=-0.0 size=N/A time=00:11:20.17 bitrate=N/A speed=17.6x    frame=16550 fps=422 q=-0.0 size=N/A time=00:11:30.27 bitrate=N/A speed=17.6x    frame=16778 fps=423 q=-0.0 size=N/A time=00:11:39.78 bitrate=N/A speed=17.6x    frame=17013 fps=423 q=-0.0 size=N/A time=00:11:49.58 bitrate=N/A speed=17.6x    frame=17228 fps=423 q=-0.0 size=N/A time=00:11:58.55 bitrate=N/A speed=17.6x    frame=17438 fps=423 q=-0.0 size=N/A time=00:12:07.30 bitrate=N/A speed=17.6x    frame=17660 fps=423 q=-0.0 size=N/A time=00:12:16.56 bitrate=N/A speed=17.6x    frame=17895 fps=423 q=-0.0 size=N/A time=00:12:26.37 bitrate=N/A speed=17.7x    frame=18117 fps=423 q=-0.0 size=N/A time=00:12:35.62 bitrate=N/A speed=17.7x    frame=18331 fps=423 q=-0.0 size=N/A time=00:12:44.55 bitrate=N/A speed=17.7x    frame=18560 fps=423 q=-0.0 size=N/A time=00:12:54.10 bitrate=N/A speed=17.7x    frame=18774 fps=423 q=-0.0 size=N/A time=00:13:03.03 bitrate=N/A speed=17.7x    frame=18981 fps=423 q=-0.0 size=N/A time=00:13:11.66 bitrate=N/A speed=17.6x    frame=19200 fps=423 q=-0.0 size=N/A time=00:13:20.80 bitrate=N/A speed=17.6x    frame=19433 fps=423 q=-0.0 size=N/A time=00:13:30.51 bitrate=N/A speed=17.7x    frame=19666 fps=424 q=-0.0 size=N/A time=00:13:40.23 bitrate=N/A speed=17.7x    frame=19903 fps=424 q=-0.0 size=N/A time=00:13:50.12 bitrate=N/A speed=17.7x    frame=20143 fps=425 q=-0.0 size=N/A time=00:14:00.13 bitrate=N/A speed=17.7x    frame=20380 fps=425 q=-0.0 size=N/A time=00:14:10.01 bitrate=N/A speed=17.7x    frame=20637 fps=426 q=-0.0 size=N/A time=00:14:20.73 bitrate=N/A speed=17.8x    frame=20865 fps=426 q=-0.0 size=N/A time=00:14:30.24 bitrate=N/A speed=17.8x    frame=21098 fps=426 q=-0.0 size=N/A time=00:14:39.96 bitrate=N/A speed=17.8x    frame=21335 fps=427 q=-0.0 size=N/A time=00:14:49.84 bitrate=N/A speed=17.8x    frame=21572 fps=427 q=-0.0 size=N/A time=00:14:59.73 bitrate=N/A speed=17.8x    frame=21797 fps=427 q=-0.0 size=N/A time=00:15:09.11 bitrate=N/A speed=17.8x    frame=22036 fps=427 q=-0.0 size=N/A time=00:15:19.08 bitrate=N/A speed=17.8x    frame=22253 fps=427 q=-0.0 size=N/A time=00:15:28.13 bitrate=N/A speed=17.8x    frame=22465 fps=427 q=-0.0 size=N/A time=00:15:36.97 bitrate=N/A speed=17.8x    frame=22646 fps=426 q=-0.0 size=N/A time=00:15:44.52 bitrate=N/A speed=17.8x    frame=22831 fps=426 q=-0.0 size=N/A time=00:15:52.24 bitrate=N/A speed=17.8x    frame=23037 fps=425 q=-0.0 size=N/A time=00:16:00.83 bitrate=N/A speed=17.7x    frame=23271 fps=426 q=-0.0 size=N/A time=00:16:10.59 bitrate=N/A speed=17.8x    frame=23497 fps=426 q=-0.0 size=N/A time=00:16:20.02 bitrate=N/A speed=17.8x    frame=23696 fps=425 q=-0.0 size=N/A time=00:16:28.32 bitrate=N/A speed=17.7x    frame=23909 fps=425 q=-0.0 size=N/A time=00:16:37.20 bitrate=N/A speed=17.7x    frame=24096 fps=425 q=-0.0 size=N/A time=00:16:45.00 bitrate=N/A speed=17.7x    frame=24301 fps=425 q=-0.0 size=N/A time=00:16:53.55 bitrate=N/A speed=17.7x    frame=24498 fps=424 q=-0.0 size=N/A time=00:17:01.77 bitrate=N/A speed=17.7x    frame=24695 fps=424 q=-0.0 size=N/A time=00:17:09.98 bitrate=N/A speed=17.7x    frame=24882 fps=423 q=-0.0 size=N/A time=00:17:17.78 bitrate=N/A speed=17.7x    frame=25089 fps=423 q=-0.0 size=N/A time=00:17:26.42 bitrate=N/A speed=17.6x    frame=25297 fps=423 q=-0.0 size=N/A time=00:17:35.09 bitrate=N/A speed=17.6x    frame=25503 fps=423 q=-0.0 size=N/A time=00:17:43.68 bitrate=N/A speed=17.6x    frame=25699 fps=422 q=-0.0 size=N/A time=00:17:51.86 bitrate=N/A speed=17.6x    frame=25904 fps=422 q=-0.0 size=N/A time=00:18:00.41 bitrate=N/A speed=17.6x    frame=26131 fps=422 q=-0.0 size=N/A time=00:18:09.88 bitrate=N/A speed=17.6x    frame=26369 fps=423 q=-0.0 size=N/A time=00:18:19.80 bitrate=N/A speed=17.6x    frame=26589 fps=423 q=-0.0 size=N/A time=00:18:28.98 bitrate=N/A speed=17.6x    frame=26824 fps=423 q=-0.0 size=N/A time=00:18:38.78 bitrate=N/A speed=17.6x    frame=27058 fps=423 q=-0.0 size=N/A time=00:18:48.54 bitrate=N/A speed=17.6x    frame=27293 fps=423 q=-0.0 size=N/A time=00:18:58.34 bitrate=N/A speed=17.7x    frame=27526 fps=424 q=-0.0 size=N/A time=00:19:08.06 bitrate=N/A speed=17.7x    frame=27752 fps=424 q=-0.0 size=N/A time=00:19:17.48 bitrate=N/A speed=17.7x    frame=27978 fps=424 q=-0.0 size=N/A time=00:19:26.91 bitrate=N/A speed=17.7x    frame=28184 fps=424 q=-0.0 size=N/A time=00:19:35.50 bitrate=N/A speed=17.7x    frame=28397 fps=424 q=-0.0 size=N/A time=00:19:44.39 bitrate=N/A speed=17.7x    frame=28613 fps=423 q=-0.0 size=N/A time=00:19:53.40 bitrate=N/A speed=17.7x    frame=28822 fps=423 q=-0.0 size=N/A time=00:20:02.11 bitrate=N/A speed=17.7x    frame=29051 fps=424 q=-0.0 size=N/A time=00:20:11.66 bitrate=N/A speed=17.7x    frame=29281 fps=424 q=-0.0 size=N/A time=00:20:21.26 bitrate=N/A speed=17.7x    frame=29521 fps=424 q=-0.0 size=N/A time=00:20:31.27 bitrate=N/A speed=17.7x    frame=29747 fps=424 q=-0.0 size=N/A time=00:20:40.69 bitrate=N/A speed=17.7x    frame=29986 fps=424 q=-0.0 size=N/A time=00:20:50.66 bitrate=N/A speed=17.7x    frame=30218 fps=425 q=-0.0 size=N/A time=00:21:00.34 bitrate=N/A speed=17.7x    frame=30454 fps=425 q=-0.0 size=N/A time=00:21:10.18 bitrate=N/A speed=17.7x    frame=30685 fps=425 q=-0.0 size=N/A time=00:21:19.82 bitrate=N/A speed=17.7x    frame=30906 fps=425 q=-0.0 size=N/A time=00:21:29.03 bitrate=N/A speed=17.7x    frame=31118 fps=425 q=-0.0 size=N/A time=00:21:37.87 bitrate=N/A speed=17.7x    frame=31334 fps=425 q=-0.0 size=N/A time=00:21:46.88 bitrate=N/A speed=17.7x    frame=31561 fps=425 q=-0.0 size=N/A time=00:21:56.35 bitrate=N/A speed=17.7x    frame=31774 fps=425 q=-0.0 size=N/A time=00:22:05.24 bitrate=N/A speed=17.7x    frame=32008 fps=425 q=-0.0 size=N/A time=00:22:15.00 bitrate=N/A speed=17.7x    frame=32240 fps=425 q=-0.0 size=N/A time=00:22:24.67 bitrate=N/A speed=17.7x    frame=32475 fps=425 q=-0.0 size=N/A time=00:22:34.47 bitrate=N/A speed=17.7x    frame=32709 fps=426 q=-0.0 size=N/A time=00:22:44.23 bitrate=N/A speed=17.8x    frame=32929 fps=426 q=-0.0 size=N/A time=00:22:53.41 bitrate=N/A speed=17.8x    frame=33146 fps=426 q=-0.0 size=N/A time=00:23:02.46 bitrate=N/A speed=17.7x    frame=33341 fps=425 q=-0.0 size=N/A time=00:23:10.59 bitrate=N/A speed=17.7x    frame=33550 fps=425 q=-0.0 size=N/A time=00:23:19.31 bitrate=N/A speed=17.7x    frame=33749 fps=425 q=-0.0 size=N/A time=00:23:27.61 bitrate=N/A speed=17.7x    frame=33964 fps=425 q=-0.0 size=N/A time=00:23:36.58 bitrate=N/A speed=17.7x    frame=34181 fps=425 q=-0.0 size=N/A time=00:23:45.63 bitrate=N/A speed=17.7x    frame=34413 fps=425 q=-0.0 size=N/A time=00:23:55.30 bitrate=N/A speed=17.7x    frame=34604 fps=425 q=-0.0 size=N/A time=00:24:03.27 bitrate=N/A speed=17.7x    frame=34796 fps=424 q=-0.0 size=N/A time=00:24:11.28 bitrate=N/A speed=17.7x    [Parsed_psnr_10 @ 0000026b997457c0] PSNR y:49.653998 u:52.448844 v:52.951201 average:50.451489 min:32.047184 max:inf
[out#0/null @ 0000026b93a7ef00] video:15062KiB audio:274140KiB subtitle:0KiB other streams:0KiB global headers:0KiB muxing overhead: unknown
frame=35053 fps=425 q=-0.0 Lsize=N/A time=00:24:22.00 bitrate=N/A speed=17.7x    
